<svg width="174" height="160" viewBox="0 0 174 160" fill="none" xmlns="http://www.w3.org/2000/svg">
<path d="M159.844 67.96L156.834 68.4283L158.305 65.7503L165.342 52.9412L148.495 56.2777L145.308 56.9088L146.902 54.0671L153.747 41.8639L138.167 45.3689L135.3 46.0138L136.467 43.3069L141.987 30.5013L125.78 29.5653L123.188 29.4157L124.617 27.2388L134.327 12.4547L120.074 15.2686L117.34 15.8084L118.403 13.2222L122.532 3.1751C121.925 3.48458 121.246 3.83713 120.5 4.23329C116.983 6.10027 111.981 8.93507 106.06 12.7956C94.2139 20.519 78.7121 32.3349 64.0802 48.7025C49.23 65.3143 33.509 77.295 21.5024 85.1234C17.0443 88.03 13.0956 90.366 9.88997 92.1556L16.2012 91.0693L18.9456 90.5969L17.8227 93.1551L12.3639 105.592L25.2353 103.07L27.6536 102.596L26.9569 104.968L22.2591 120.965L35.6022 120.265L37.7239 120.154L37.1126 122.197L33.9544 132.752L48.8258 128.803L52.6302 127.793L50.4548 131.086L39.6371 147.458L55.0626 144.47L57.9537 143.91L56.6993 146.585L52.2746 156.019C53.1261 155.556 54.0998 155.02 55.1791 154.414C59.418 152.034 65.2824 148.586 71.7791 144.316C84.8033 135.754 100.245 123.966 110.278 110.926C120.623 97.4815 136.404 85.4728 149.508 76.8589C155.701 72.7882 161.323 69.4579 165.538 67.074L159.844 67.96Z" fill="#8F9DD6" stroke="black" stroke-width="3"/>
</svg>
