<svg width="174" height="160" viewBox="0 0 174 160" fill="none" xmlns="http://www.w3.org/2000/svg">
<path d="M14.2116 67.96L17.2215 68.4283L15.7504 65.7503L8.71372 52.9412L25.5608 56.2777L28.7477 56.9088L27.1536 54.0671L20.3082 41.8639L35.8884 45.3689L38.7553 46.0138L37.5884 43.3069L32.0682 30.5013L48.2759 29.5653L50.8678 29.4157L49.4381 27.2388L39.7282 12.4547L53.9814 15.2686L56.7157 15.8084L55.6528 13.2222L51.5238 3.1751C52.1305 3.48458 52.8097 3.83713 53.5558 4.23329C57.0722 6.10027 62.0748 8.93507 67.9959 12.7956C79.8415 20.519 95.3433 32.3349 109.975 48.7025C124.825 65.3143 140.546 77.295 152.553 85.1234C157.011 88.03 160.96 90.366 164.165 92.1556L157.854 91.0693L155.11 90.5969L156.233 93.1551L161.692 105.592L148.82 103.07L146.402 102.596L147.099 104.968L151.796 120.965L138.453 120.265L136.332 120.154L136.943 122.197L140.101 132.752L125.23 128.803L121.425 127.793L123.601 131.086L134.418 147.458L118.993 144.47L116.102 143.91L117.356 146.585L121.781 156.019C120.929 155.556 119.956 155.02 118.876 154.414C114.637 152.034 108.773 148.586 102.276 144.316C89.2521 135.754 73.8103 123.966 63.7771 110.926C53.4323 97.4815 37.6513 85.4728 24.5473 76.8589C18.3547 72.7882 12.7322 69.4579 8.51774 67.074L14.2116 67.96Z" fill="#8F9DD6" stroke="black" stroke-width="3"/>
</svg>
